<mxfile host="app.diagrams.net" modified="2024-07-22T21:40:41.126Z" agent="Mozilla/5.0 (X11; Ubuntu; Linux x86_64; rv:127.0) Gecko/20100101 Firefox/127.0" etag="jLqclIBV0PwjUEuRy_NS" version="24.7.3" type="github">
  <diagram name="Page-1" id="BqIb10zO7e_1ZupDI-Ze">
    <mxGraphModel dx="1225" dy="845" grid="1" gridSize="10" guides="1" tooltips="1" connect="1" arrows="1" fold="1" page="1" pageScale="1" pageWidth="827" pageHeight="1169" math="0" shadow="0">
      <root>
        <mxCell id="0" />
        <mxCell id="1" parent="0" />
        <mxCell id="kEBvHksZACQmvNdi-KZS-1" value="" style="rounded=0;whiteSpace=wrap;html=1;" vertex="1" parent="1">
          <mxGeometry x="90" y="160" width="1350" height="450" as="geometry" />
        </mxCell>
        <mxCell id="kEBvHksZACQmvNdi-KZS-2" value="Log File 1" style="rounded=0;whiteSpace=wrap;html=1;" vertex="1" parent="1">
          <mxGeometry x="100" y="170" width="150" height="80" as="geometry" />
        </mxCell>
        <mxCell id="kEBvHksZACQmvNdi-KZS-3" value="Log File 2" style="rounded=0;whiteSpace=wrap;html=1;" vertex="1" parent="1">
          <mxGeometry x="100" y="260" width="150" height="80" as="geometry" />
        </mxCell>
        <mxCell id="kEBvHksZACQmvNdi-KZS-15" value="" style="edgeStyle=orthogonalEdgeStyle;rounded=0;orthogonalLoop=1;jettySize=auto;html=1;" edge="1" parent="1" source="kEBvHksZACQmvNdi-KZS-4" target="kEBvHksZACQmvNdi-KZS-9">
          <mxGeometry relative="1" as="geometry" />
        </mxCell>
        <mxCell id="kEBvHksZACQmvNdi-KZS-4" value="Log File 3" style="rounded=0;whiteSpace=wrap;html=1;" vertex="1" parent="1">
          <mxGeometry x="100" y="350" width="150" height="80" as="geometry" />
        </mxCell>
        <mxCell id="kEBvHksZACQmvNdi-KZS-5" value="Log File N" style="rounded=0;whiteSpace=wrap;html=1;" vertex="1" parent="1">
          <mxGeometry x="100" y="440" width="150" height="80" as="geometry" />
        </mxCell>
        <mxCell id="kEBvHksZACQmvNdi-KZS-20" style="edgeStyle=orthogonalEdgeStyle;rounded=0;orthogonalLoop=1;jettySize=auto;html=1;entryX=0;entryY=0.5;entryDx=0;entryDy=0;" edge="1" parent="1" source="kEBvHksZACQmvNdi-KZS-6" target="kEBvHksZACQmvNdi-KZS-17">
          <mxGeometry relative="1" as="geometry" />
        </mxCell>
        <mxCell id="kEBvHksZACQmvNdi-KZS-6" value="View 1" style="rounded=0;whiteSpace=wrap;html=1;" vertex="1" parent="1">
          <mxGeometry x="320" y="170" width="120" height="60" as="geometry" />
        </mxCell>
        <mxCell id="kEBvHksZACQmvNdi-KZS-21" style="edgeStyle=orthogonalEdgeStyle;rounded=0;orthogonalLoop=1;jettySize=auto;html=1;exitX=1;exitY=0.5;exitDx=0;exitDy=0;entryX=0;entryY=0.5;entryDx=0;entryDy=0;" edge="1" parent="1" source="kEBvHksZACQmvNdi-KZS-7" target="kEBvHksZACQmvNdi-KZS-17">
          <mxGeometry relative="1" as="geometry" />
        </mxCell>
        <mxCell id="kEBvHksZACQmvNdi-KZS-7" value="View 2" style="rounded=0;whiteSpace=wrap;html=1;" vertex="1" parent="1">
          <mxGeometry x="320" y="240" width="120" height="60" as="geometry" />
        </mxCell>
        <mxCell id="kEBvHksZACQmvNdi-KZS-22" style="edgeStyle=orthogonalEdgeStyle;rounded=0;orthogonalLoop=1;jettySize=auto;html=1;" edge="1" parent="1" source="kEBvHksZACQmvNdi-KZS-8">
          <mxGeometry relative="1" as="geometry">
            <mxPoint x="500" y="340" as="targetPoint" />
          </mxGeometry>
        </mxCell>
        <mxCell id="kEBvHksZACQmvNdi-KZS-8" value="View 3" style="rounded=0;whiteSpace=wrap;html=1;" vertex="1" parent="1">
          <mxGeometry x="320" y="310" width="120" height="60" as="geometry" />
        </mxCell>
        <mxCell id="kEBvHksZACQmvNdi-KZS-23" style="edgeStyle=orthogonalEdgeStyle;rounded=0;orthogonalLoop=1;jettySize=auto;html=1;exitX=1;exitY=0.5;exitDx=0;exitDy=0;entryX=0;entryY=0.5;entryDx=0;entryDy=0;" edge="1" parent="1" source="kEBvHksZACQmvNdi-KZS-9" target="kEBvHksZACQmvNdi-KZS-17">
          <mxGeometry relative="1" as="geometry" />
        </mxCell>
        <mxCell id="kEBvHksZACQmvNdi-KZS-9" value="View 3" style="rounded=0;whiteSpace=wrap;html=1;" vertex="1" parent="1">
          <mxGeometry x="320" y="380" width="120" height="60" as="geometry" />
        </mxCell>
        <mxCell id="kEBvHksZACQmvNdi-KZS-24" style="edgeStyle=orthogonalEdgeStyle;rounded=0;orthogonalLoop=1;jettySize=auto;html=1;entryX=0;entryY=0.5;entryDx=0;entryDy=0;" edge="1" parent="1" source="kEBvHksZACQmvNdi-KZS-10" target="kEBvHksZACQmvNdi-KZS-17">
          <mxGeometry relative="1" as="geometry" />
        </mxCell>
        <mxCell id="kEBvHksZACQmvNdi-KZS-10" value="View N" style="rounded=0;whiteSpace=wrap;html=1;" vertex="1" parent="1">
          <mxGeometry x="320" y="450" width="120" height="60" as="geometry" />
        </mxCell>
        <mxCell id="kEBvHksZACQmvNdi-KZS-11" value="" style="endArrow=classic;html=1;rounded=0;entryX=0;entryY=0.5;entryDx=0;entryDy=0;" edge="1" parent="1" target="kEBvHksZACQmvNdi-KZS-6">
          <mxGeometry width="50" height="50" relative="1" as="geometry">
            <mxPoint x="250" y="220" as="sourcePoint" />
            <mxPoint x="300" y="170" as="targetPoint" />
          </mxGeometry>
        </mxCell>
        <mxCell id="kEBvHksZACQmvNdi-KZS-12" value="" style="endArrow=classic;html=1;rounded=0;entryX=0;entryY=0.5;entryDx=0;entryDy=0;" edge="1" parent="1" target="kEBvHksZACQmvNdi-KZS-7">
          <mxGeometry width="50" height="50" relative="1" as="geometry">
            <mxPoint x="250" y="240" as="sourcePoint" />
            <mxPoint x="320" y="220" as="targetPoint" />
          </mxGeometry>
        </mxCell>
        <mxCell id="kEBvHksZACQmvNdi-KZS-13" value="" style="endArrow=classic;html=1;rounded=0;entryX=0;entryY=0.5;entryDx=0;entryDy=0;" edge="1" parent="1" target="kEBvHksZACQmvNdi-KZS-8">
          <mxGeometry width="50" height="50" relative="1" as="geometry">
            <mxPoint x="250" y="325" as="sourcePoint" />
            <mxPoint x="320" y="275" as="targetPoint" />
          </mxGeometry>
        </mxCell>
        <mxCell id="kEBvHksZACQmvNdi-KZS-14" value="" style="endArrow=classic;html=1;rounded=0;entryX=0;entryY=0.5;entryDx=0;entryDy=0;" edge="1" parent="1">
          <mxGeometry width="50" height="50" relative="1" as="geometry">
            <mxPoint x="250" y="470" as="sourcePoint" />
            <mxPoint x="320" y="480" as="targetPoint" />
          </mxGeometry>
        </mxCell>
        <mxCell id="kEBvHksZACQmvNdi-KZS-16" value="Multiple log files might have multiple SQL queries within." style="text;html=1;align=center;verticalAlign=middle;whiteSpace=wrap;rounded=0;" vertex="1" parent="1">
          <mxGeometry x="100" y="540" width="320" height="30" as="geometry" />
        </mxCell>
        <mxCell id="kEBvHksZACQmvNdi-KZS-26" style="edgeStyle=orthogonalEdgeStyle;rounded=0;orthogonalLoop=1;jettySize=auto;html=1;exitX=0.5;exitY=1;exitDx=0;exitDy=0;" edge="1" parent="1" source="kEBvHksZACQmvNdi-KZS-17" target="kEBvHksZACQmvNdi-KZS-27">
          <mxGeometry relative="1" as="geometry">
            <mxPoint x="540" y="700" as="targetPoint" />
          </mxGeometry>
        </mxCell>
        <mxCell id="kEBvHksZACQmvNdi-KZS-29" value="" style="edgeStyle=orthogonalEdgeStyle;rounded=0;orthogonalLoop=1;jettySize=auto;html=1;" edge="1" parent="1" source="kEBvHksZACQmvNdi-KZS-17" target="kEBvHksZACQmvNdi-KZS-28">
          <mxGeometry relative="1" as="geometry" />
        </mxCell>
        <mxCell id="kEBvHksZACQmvNdi-KZS-17" value="Push to Git" style="whiteSpace=wrap;html=1;aspect=fixed;" vertex="1" parent="1">
          <mxGeometry x="500" y="300" width="80" height="80" as="geometry" />
        </mxCell>
        <mxCell id="kEBvHksZACQmvNdi-KZS-27" value="Issues in Pipeline to be resolved and rerun the views" style="rounded=0;whiteSpace=wrap;html=1;" vertex="1" parent="1">
          <mxGeometry x="457.5" y="620" width="165" height="70" as="geometry" />
        </mxCell>
        <mxCell id="kEBvHksZACQmvNdi-KZS-31" value="" style="edgeStyle=orthogonalEdgeStyle;rounded=0;orthogonalLoop=1;jettySize=auto;html=1;" edge="1" parent="1" source="kEBvHksZACQmvNdi-KZS-28" target="kEBvHksZACQmvNdi-KZS-30">
          <mxGeometry relative="1" as="geometry" />
        </mxCell>
        <mxCell id="kEBvHksZACQmvNdi-KZS-28" value="Initiate Transformation" style="whiteSpace=wrap;html=1;aspect=fixed;" vertex="1" parent="1">
          <mxGeometry x="610" y="290" width="100" height="100" as="geometry" />
        </mxCell>
        <mxCell id="kEBvHksZACQmvNdi-KZS-42" style="edgeStyle=orthogonalEdgeStyle;rounded=0;orthogonalLoop=1;jettySize=auto;html=1;" edge="1" parent="1" source="kEBvHksZACQmvNdi-KZS-30" target="kEBvHksZACQmvNdi-KZS-32">
          <mxGeometry relative="1" as="geometry" />
        </mxCell>
        <mxCell id="kEBvHksZACQmvNdi-KZS-30" value="Re-create new final views" style="rounded=0;whiteSpace=wrap;html=1;" vertex="1" parent="1">
          <mxGeometry x="740" y="310" width="120" height="60" as="geometry" />
        </mxCell>
        <mxCell id="kEBvHksZACQmvNdi-KZS-37" style="edgeStyle=orthogonalEdgeStyle;rounded=0;orthogonalLoop=1;jettySize=auto;html=1;exitX=0.5;exitY=1;exitDx=0;exitDy=0;" edge="1" parent="1" source="kEBvHksZACQmvNdi-KZS-32" target="kEBvHksZACQmvNdi-KZS-36">
          <mxGeometry relative="1" as="geometry" />
        </mxCell>
        <mxCell id="kEBvHksZACQmvNdi-KZS-48" value="" style="edgeStyle=orthogonalEdgeStyle;rounded=0;orthogonalLoop=1;jettySize=auto;html=1;" edge="1" parent="1" source="kEBvHksZACQmvNdi-KZS-32" target="kEBvHksZACQmvNdi-KZS-43">
          <mxGeometry relative="1" as="geometry" />
        </mxCell>
        <mxCell id="kEBvHksZACQmvNdi-KZS-32" value="Push to Git" style="rounded=0;whiteSpace=wrap;html=1;" vertex="1" parent="1">
          <mxGeometry x="900" y="310" width="120" height="60" as="geometry" />
        </mxCell>
        <mxCell id="kEBvHksZACQmvNdi-KZS-36" value="Rerun the finalized views" style="rounded=0;whiteSpace=wrap;html=1;" vertex="1" parent="1">
          <mxGeometry x="885" y="620" width="150" height="70" as="geometry" />
        </mxCell>
        <mxCell id="kEBvHksZACQmvNdi-KZS-40" value="Dagster pipeline runs execution after each commit" style="text;html=1;align=center;verticalAlign=middle;whiteSpace=wrap;rounded=0;" vertex="1" parent="1">
          <mxGeometry x="970" y="480" width="155" height="30" as="geometry" />
        </mxCell>
        <mxCell id="kEBvHksZACQmvNdi-KZS-41" value="Dagster pipeline runs execution after each commit" style="text;html=1;align=center;verticalAlign=middle;whiteSpace=wrap;rounded=0;" vertex="1" parent="1">
          <mxGeometry x="550" y="480" width="155" height="30" as="geometry" />
        </mxCell>
        <mxCell id="kEBvHksZACQmvNdi-KZS-49" value="" style="edgeStyle=orthogonalEdgeStyle;rounded=0;orthogonalLoop=1;jettySize=auto;html=1;" edge="1" parent="1" source="kEBvHksZACQmvNdi-KZS-43" target="kEBvHksZACQmvNdi-KZS-45">
          <mxGeometry relative="1" as="geometry" />
        </mxCell>
        <mxCell id="kEBvHksZACQmvNdi-KZS-43" value="Create Tables Based on Views" style="rounded=0;whiteSpace=wrap;html=1;" vertex="1" parent="1">
          <mxGeometry x="1050" y="310" width="120" height="60" as="geometry" />
        </mxCell>
        <mxCell id="kEBvHksZACQmvNdi-KZS-44" value="Rerun the finalized views" style="rounded=0;whiteSpace=wrap;html=1;" vertex="1" parent="1">
          <mxGeometry x="1175" y="620" width="150" height="70" as="geometry" />
        </mxCell>
        <mxCell id="kEBvHksZACQmvNdi-KZS-46" style="edgeStyle=orthogonalEdgeStyle;rounded=0;orthogonalLoop=1;jettySize=auto;html=1;" edge="1" parent="1" source="kEBvHksZACQmvNdi-KZS-45" target="kEBvHksZACQmvNdi-KZS-44">
          <mxGeometry relative="1" as="geometry" />
        </mxCell>
        <mxCell id="kEBvHksZACQmvNdi-KZS-45" value="Push to Git" style="rounded=0;whiteSpace=wrap;html=1;" vertex="1" parent="1">
          <mxGeometry x="1190" y="310" width="120" height="60" as="geometry" />
        </mxCell>
        <mxCell id="kEBvHksZACQmvNdi-KZS-50" value="Dagster pipeline runs execution after each commit" style="text;html=1;align=center;verticalAlign=middle;whiteSpace=wrap;rounded=0;" vertex="1" parent="1">
          <mxGeometry x="1260" y="480" width="155" height="30" as="geometry" />
        </mxCell>
      </root>
    </mxGraphModel>
  </diagram>
</mxfile>
